#N canvas 23 91 694 587 10;
#X declare -lib mrpeach;
#X msg 142 20 devices;
#X msg 143 40 open 2;
#X msg 143 62 close 2;
#X obj 55 164 route list;
#X obj 55 196 unpack f f;
#X floatatom 55 232 5 0 0 0 - - -;
#X floatatom 112 232 5 0 0 0 - - -;
#X obj 55 129 pdmtl/convert.ascii2pd CR;
#X obj 55 88 comport 2 9600;
#X text 195 20 verificar se o arduino esta na porta 2;
#X text 195 40 abrir comport;
#X text 195 62 fechar comport;
#X text 218 128 conversão pro PD;
#X text 129 195 descompacta valores. f = float;
#X obj 526 426 *~;
#X obj 466 446 +~;
#X floatatom 552 398 0 0 1000 0 - - -;
#X text 413 340 carrier;
#X text 402 353 frequency;
#X text 565 352 frequency;
#X text 568 340 modulation;
#X obj 466 478 osc~;
#X text 577 403 index;
#X text 578 391 modulation;
#X obj 526 376 osc~;
#X obj 452 508 output~;
#X floatatom 466 346 0 -125 -24 0 - - -;
#X floatatom 526 348 5 0 0 0 - - -;
#X text 352 311 OSCILADOR BASICO;
#X obj 466 80 nano/map;
#X msg 610 297 250;
#X obj 610 272 loadbang;
#X text 477 52 patch para mudar escala;
#X obj 496 262 nano/ease;
#X text 290 462 clique para ligar OSC;
#X text 505 240 patch para suavizar;
#X obj 55 363 change;
#X obj 162 363 change;
#X text 129 163 rotear valores da lista (separados por espaço);
#X obj 176 272 send som2;
#X obj 466 29 receive som2;
#X text 263 407 mensagens OSC para Processing;
#X msg 141 485 disconnect;
#X obj 600 8 import mrpeach;
#X obj 55 461 packOSC;
#X obj 55 510 udpsend;
#X msg 55 415 send /pd/1 \$1;
#X msg 162 415 send /pd/2 \$1;
#X obj 55 538 tgl 15 0 empty empty empty 17 7 0 10 -262144 -1 -1 1
1;
#X msg 141 461 connect localhost 9999;
#X connect 0 0 8 0;
#X connect 1 0 8 0;
#X connect 2 0 8 0;
#X connect 3 0 4 0;
#X connect 4 0 5 0;
#X connect 4 1 6 0;
#X connect 5 0 36 0;
#X connect 6 0 37 0;
#X connect 6 0 39 0;
#X connect 7 0 3 0;
#X connect 8 0 7 0;
#X connect 14 0 15 1;
#X connect 15 0 21 0;
#X connect 16 0 14 1;
#X connect 21 0 25 0;
#X connect 21 0 25 1;
#X connect 24 0 14 0;
#X connect 26 0 15 0;
#X connect 27 0 24 0;
#X connect 29 0 33 0;
#X connect 29 0 26 0;
#X connect 30 0 27 0;
#X connect 30 0 16 0;
#X connect 31 0 30 0;
#X connect 33 0 27 0;
#X connect 36 0 46 0;
#X connect 37 0 47 0;
#X connect 40 0 29 0;
#X connect 42 0 45 0;
#X connect 44 0 45 0;
#X connect 45 0 48 0;
#X connect 46 0 44 0;
#X connect 47 0 44 0;
#X connect 49 0 45 0;
