#N canvas 179 118 621 482 10;
#X obj 49 305 expr $f4 + ($f5-$f4) * ($f1-$f2) / ($f3-$f2);
#X obj 114 17 inlet;
#X obj 49 368 outlet;
#X text 239 121 value;
#X text 239 143 low;
#X text 240 162 high;
#X text 152 180 min;
#X text 241 181 max;
#X obj 117 124 hsl 80 15 0 1023 0 0 empty empty empty -2 -8 0 10 -262144
-1 -1 3861 1;
#X floatatom 200 123 5 0 0 0 - - -;
#X obj 117 143 hsl 80 15 0 1023 0 0 empty empty empty -2 -8 0 10 -262144
-1 -1 0 1;
#X floatatom 199 143 5 0 0 0 - - -;
#X obj 117 162 hsl 80 15 0 1023 0 0 empty empty empty -2 -8 0 10 -262144
-1 -1 7900 1;
#X floatatom 199 161 5 0 0 0 - - -;
#X floatatom 115 181 5 0 0 0 - - -;
#X floatatom 199 181 5 0 0 0 - - -;
#X text 152 205 result;
#X floatatom 117 205 5 0 0 0 - - -;
#X obj 23 109 bng 15 250 50 0 empty empty empty 17 7 0 10 -262144 -1
-1;
#X text 111 192 ---------------------------;
#X obj 217 104 bng 15 250 50 0 empty empty empty 17 7 0 10 -262144
-1 -1;
#X text 372 45 default values;
#X text 238 103 load;
#X obj 157 17 inlet;
#X obj 196 17 inlet;
#X obj 234 17 inlet;
#X obj 273 17 inlet;
#X msg 157 74 \$1;
#X msg 196 74 \$1;
#X msg 234 74 \$1;
#X msg 273 74 \$1;
#X msg 128 44 500;
#X msg 167 44 0;
#X msg 204 44 1023;
#X msg 242 44 0;
#X obj 337 29 bng 15 250 50 0 empty empty empty 17 7 0 10 -262144 -1
-1;
#X obj 371 12 loadbang;
#X text 324 195 comment;
#X msg 283 44 127;
#X connect 0 0 2 0;
#X connect 0 0 17 0;
#X connect 1 0 8 0;
#X connect 8 0 0 0;
#X connect 8 0 9 0;
#X connect 10 0 11 0;
#X connect 10 0 0 1;
#X connect 10 0 18 0;
#X connect 12 0 13 0;
#X connect 12 0 0 2;
#X connect 12 0 18 0;
#X connect 14 0 0 3;
#X connect 14 0 18 0;
#X connect 15 0 0 4;
#X connect 15 0 18 0;
#X connect 18 0 8 0;
#X connect 20 0 35 0;
#X connect 23 0 27 0;
#X connect 24 0 28 0;
#X connect 25 0 29 0;
#X connect 26 0 30 0;
#X connect 27 0 10 0;
#X connect 28 0 12 0;
#X connect 29 0 14 0;
#X connect 30 0 15 0;
#X connect 31 0 8 0;
#X connect 32 0 27 0;
#X connect 33 0 28 0;
#X connect 34 0 29 0;
#X connect 35 0 31 0;
#X connect 35 0 32 0;
#X connect 35 0 33 0;
#X connect 35 0 34 0;
#X connect 35 0 38 0;
#X connect 36 0 35 0;
#X connect 38 0 30 0;
#X coords 0 -1 1 1 180 125 1 100 100;
